<?xml version="1.0" encoding="utf-8"?>
<!-- Generator: Adobe Illustrator 18.1.1, SVG Export Plug-In . SVG Version: 6.00 Build 0)  -->
<!DOCTYPE svg PUBLIC "-//W3C//DTD SVG 1.1//EN" "http://www.w3.org/Graphics/SVG/1.1/DTD/svg11.dtd">
<svg version="1.1" id="Layer_1" xmlns="http://www.w3.org/2000/svg" xmlns:xlink="http://www.w3.org/1999/xlink" x="0px" y="0px"
	 viewBox="-5.5 261 444.6 86.2" enable-background="new -5.5 261 444.6 86.2" xml:space="preserve">
<path fill="#435152" d="M11.1,282h77.3c9.1,0,16.6,9.9,16.6,22.1c0,12.2-7.4,22.1-16.6,22.1H11.1c-9.2,0-16.6-9.9-16.6-22.1
	C-5.5,291.9,1.9,282,11.1,282"/>
<path fill="#435152" d="M345.2,282h77.4c9.1,0,16.6,9.9,16.6,22.1c0,12.2-7.4,22.1-16.6,22.1h-77.4c-9.1,0-16.6-9.9-16.6-22.1
	C328.6,291.9,336,282,345.2,282"/>
<text transform="matrix(1 0 0 1 22.9185 308.6035)" fill="#E1EBEF" font-family="'ProximaNova-Bold'" font-size="14">Request</text>
<g>
	<text transform="matrix(1 0 0 1 353.9199 308.6035)" fill="#E1EBEF" font-family="'ProximaNova-Bold'" font-size="14">Response</text>
</g>
<path fill="#435152" d="M167.6,308.9c-21.8-4.8-13.1-45.5,21.7-38.6c3.2-13.5,43.7-11.3,43.4,0c25.4-14.5,57.8,14.4,36.1,28.9
	c26.1,7-0.3,44.9-21.8,38.6c-1.7,10.5-40,14.2-43.4,0C182,353.1,136.8,329.7,167.6,308.9L167.6,308.9z"/>
<g>
	<text transform="matrix(1 0 0 1 180.377 308.6035)" fill="#E1EBEF" font-family="'ProximaNova-Bold'" font-size="14">Your server</text>
</g>
<line fill="none" stroke="#435152" stroke-linecap="round" stroke-linejoin="round" stroke-miterlimit="10" x1="105.5" y1="304.6" x2="150" y2="304.6"/>
<path fill="#E1EBEF" d="M158,304.6l-8-3v6L158,304.6z"/>
<path fill="#435152" stroke="#435152" stroke-miterlimit="10" d="M158,304.6l-8-3v6L158,304.6z"/>
<line fill="none" stroke="#435152" stroke-linecap="round" stroke-linejoin="round" stroke-miterlimit="10" x1="277.5" y1="304.6" x2="320.6" y2="304.6"/>
<path fill="#E1EBEF" d="M328.6,304.6l-8-3v6L328.6,304.6z"/>
<path fill="#435152" stroke="#435152" stroke-miterlimit="10" d="M328.6,304.6l-8-3v6L328.6,304.6z"/>
</svg>
