<?xml version="1.0" encoding="utf-8"?>
<!-- Generator: Adobe Illustrator 18.1.1, SVG Export Plug-In . SVG Version: 6.00 Build 0)  -->
<!DOCTYPE svg PUBLIC "-//W3C//DTD SVG 1.1//EN" "http://www.w3.org/Graphics/SVG/1.1/DTD/svg11.dtd">
<svg version="1.1" id="Layer_1" xmlns="http://www.w3.org/2000/svg" xmlns:xlink="http://www.w3.org/1999/xlink" x="0px" y="0px"
	 viewBox="-50.5 276.1 437.6 51.7" enable-background="new -50.5 276.1 437.6 51.7" xml:space="preserve">
<g>
	<path fill="#435152" d="M-33.8,279.7h78c9.2,0,16.7,10,16.7,22.3c0,12.3-7.5,22.3-16.7,22.3h-78.1c-9.2,0-16.7-10-16.7-22.3
		C-50.5,289.7-43,279.7-33.8,279.7"/>
	<path fill="#435152" d="M292.3,279.7h78.1c9.2,0,16.7,10,16.7,22.3c0,12.3-7.5,22.3-16.7,22.3h-78.1c-9.2,0-16.7-10-16.7-22.3
		C275.6,289.7,283.1,279.7,292.3,279.7"/>
	<text transform="matrix(1 0 0 1 -19.0815 306.5078)" fill="#E1EBEF" font-family="'ProximaNova-Bold'" font-size="14">Request</text>
	<text transform="matrix(1 0 0 1 300.9199 306.5078)" fill="#E1EBEF" font-family="'ProximaNova-Bold'" font-size="14">Response</text>
	<path fill="#435152" d="M109.1,276.1H232v51.7H109.1V276.1z"/>
	<text transform="matrix(1 0 0 1 137.5327 306.5078)" fill="#E1EBEF" font-family="'ProximaNova-Bold'" font-size="14">HttpKernel</text>
	
		<line fill="#435152" stroke="#435152" stroke-linecap="round" stroke-linejoin="round" stroke-miterlimit="10" x1="61.5" y1="302.5" x2="101.1" y2="302.5"/>
	<path fill="#435152" stroke="#435152" stroke-miterlimit="10" d="M109.1,302.5l-8-3v6L109.1,302.5z"/>
	
		<line fill="#435152" stroke="#435152" stroke-linecap="round" stroke-linejoin="round" stroke-miterlimit="10" x1="232.5" y1="302.5" x2="267.6" y2="302.5"/>
	<path fill="#E1EBEF" d="M275.6,302.5l-8-3v6L275.6,302.5z"/>
	<path fill="#435152" stroke="#435152" stroke-miterlimit="10" d="M275.6,302.5l-8-3v6L275.6,302.5z"/>
</g>
</svg>
